<?xml version="1.0" encoding="utf-8"?>
<svg version="1.1" xmlns:xlink="http://www.w3.org/1999/xlink" width="710px" height="510px" xmlns="http://www.w3.org/2000/svg">
  <g transform="matrix(1 0 0 1 -250 -230 )">
    <path d="M 250 230  L 960 230  L 960 740  L 250 740  L 250 230  " fill-rule="nonzero" fill="#cccccc" stroke="none" />
    <path d="M 286 266  L 924 266  L 924 704  L 286 704  L 286 266  " fill-rule="nonzero" fill="#ffffff" stroke="none" />
    <path d="M 657.45 383  C 636.03 383  619.2 366.17  619.2 344.75  C 619.2 323.33  636.03 306.5  657.45 306.5  C 678.87 306.5  695.7 323.33  695.7 344.75  C 695.7 366.17  678.87 383  657.45 383  " fill-rule="nonzero" fill="#cccccc" stroke="none" />
    <path d="M 299 691  L 299 464.4  L 452 361.4  L 666.2 513.433802816901  L 788.6 423.2  L 911 513.433802816901  L 911 691  L 299 691  " fill-rule="nonzero" fill="#169bd5" stroke="none" />
  </g>
</svg>