<?xml version="1.0" encoding="utf-8"?>
<svg version="1.1" xmlns:xlink="http://www.w3.org/1999/xlink" width="14px" height="14px" xmlns="http://www.w3.org/2000/svg">
  <g transform="matrix(1 0 0 1 -834 -133 )">
    <path d="M 13.9379408809789 6.98667927252506  C 13.9379408809789 3.13976712124582  10.8195159110122 0.0213421512791996  6.97260375973303 0.0213421512791996  C 3.12569160845385 0.0213421512791996  0.0072666384871809 3.13976712124582  0.0072666384871809 6.98667927252506  C 0.0072666384871809 10.8336194393771  3.12569160845385 13.9520163937709  6.97260375973303 13.9520163937709  C 10.8195159110122 13.9520163937709  13.9379408809789 10.833622538376  13.9379408809789 6.98667927252506  Z M 7.95652129922132 10.9523038242492  C 7.95652131479426 11.4549881357063  7.52103192658507 11.8624155750834  6.98366232703006 11.8624155750834  C 6.44646391991097 11.8624155750834  6.01095897441598 11.4549850211346  6.01095897441598 10.9523038242492  C 6.01095897441598 10.449647512792  6.44646391991097 10.0421889588431  6.98366232703006 10.0421889588431  C 7.52103191101225 10.0421889588431  7.95652129922132 10.449647512792  7.95652129922132 10.9523038242492  Z M 8.71698281423807 4.2763975951057  L 8.72788264738597 4.2763975951057  L 7.95499931701892 8.57938495884317  C 7.95499931701892 8.58415947274752  7.95652131479426 8.5885822892102  7.95652131479426 8.59332878754171  C 7.95652131479426 9.09601309899888  7.52101636929928 9.50344053837594  6.98366234260288 9.50344053837594  C 6.44646393548391 9.50344053837594  6.01095898998886 9.09600998442714  6.01095898998886 8.59332878754171  C 6.01095898998886 8.58857917463851  6.01232225361514 8.58414703003333  6.01248098776415 8.57938495884317  L 5.23941402224693 4.2763975951057  L 5.25030452725252 4.2763975951057  C 5.24349445383763 4.21722035817577  5.23941402224693 4.15770388209117  5.23941402224693 4.09716028253615  C 5.23941402224693 3.19247665406007  6.02029948164625 2.45921185984424  6.98364989988875 2.45921185984424  C 7.94700031813125 2.45921185984424  8.72787020467189 3.19247666963289  8.72787020467189 4.09716028253615  C 8.72787020467189 4.15771634037818  8.72378977308119 4.21722037374858  8.71698281423807 4.2763975951057  Z " fill-rule="nonzero" fill="#f3a000" stroke="none" transform="matrix(1 0 0 1 834 133 )" />
  </g>
</svg>