<?xml version="1.0" encoding="utf-8"?>
<svg version="1.1" xmlns:xlink="http://www.w3.org/1999/xlink" width="12px" height="13px" xmlns="http://www.w3.org/2000/svg">
  <g transform="matrix(1 0 0 1 -1223 -216 )">
    <path d="M 11.521142859375 11.5291428619792  L 6.87314285937509 6.49876190234372  L 11.5234285781248 1.46838095963543  C 11.6369778321966 1.34593292206245  11.7008130591289 1.17951907900238  11.7008130591289 1.00595238216147  C 11.7008130591289 0.83238568532056  11.6369778321966 0.66597184226049  11.5234285781248 0.54352380468751  L 11.4994285781249 0.516285707031273  C 11.3862041325915 0.393199245781261  11.2324022655112 0.324014013534651  11.0720000000001 0.324014013534651  C 10.9115977344886 0.324014013534651  10.7577958674087 0.393199245781261  10.6445714218748 0.516285707031273  L 5.99314285937498 5.54666666666662  L 1.34285714062503 0.516285707031273  C 1.22963269571528 0.393199250974533  1.07583083198779 0.324014022027654  0.915428570312542 0.324014022027654  C 0.755026308637071 0.324014022027654  0.601224444909803 0.393199250974533  0.487999999999829 0.516285707031273  L 0.462857140625147 0.54352380468751  C 0.349307886553333 0.66597184226049  0.285472659621064 0.83238568532056  0.285472659621064 1.00595238216147  C 0.285472659621064 1.17951907900238  0.349307886553333 1.34593292206245  0.462857140625147 1.46838095963543  L 5.11314285937488 6.49876190234372  L 0.462857140625147 11.5291428619792  C 0.349307891351827 11.6515908988804  0.285472667469321 11.8180047383067  0.285472667469321 11.9915714309896  C 0.285472667469321 12.1651381236724  0.349307891351827 12.3315519630987  0.462857140625147 12.454  L 0.486857140625034 12.4812380976562  C 0.72320146440552 12.7362335144241  1.10536995746952 12.7362335144241  1.34171428125001 12.4812380976562  L 5.99199999999996 7.44961904036455  L 10.6422857187499 12.4812380976562  C 10.8786300425304 12.7362335144241  11.2607985355944 12.7362335144241  11.4971428593749 12.4812380976562  L 11.521142859375 12.454  C 11.6346921086481 12.3315519630987  11.6985273325306 12.1651381236724  11.6985273325306 11.9915714309896  C 11.6985273325306 11.8180047383067  11.6346921086481 11.6515908988804  11.521142859375 11.5291428619792  Z " fill-rule="nonzero" fill="#a9adb1" stroke="none" transform="matrix(1 0 0 1 1223 216 )" />
  </g>
</svg>