<?xml version="1.0" encoding="utf-8"?>
<svg version="1.1" xmlns:xlink="http://www.w3.org/1999/xlink" width="24px" height="24px" xmlns="http://www.w3.org/2000/svg">
  <g transform="matrix(1 0 0 1 -1037 -1092 )">
    <path d="M 1049 1092  C 1055.72 1092  1061 1097.28  1061 1104  C 1061 1110.72  1055.72 1116  1049 1116  C 1042.28 1116  1037 1110.72  1037 1104  C 1037 1097.28  1042.28 1092  1049 1092  Z " fill-rule="nonzero" fill="#00cc00" stroke="none" />
    <path d="M 1049 1092.5  C 1055.44 1092.5  1060.5 1097.56  1060.5 1104  C 1060.5 1110.44  1055.44 1115.5  1049 1115.5  C 1042.56 1115.5  1037.5 1110.44  1037.5 1104  C 1037.5 1097.56  1042.56 1092.5  1049 1092.5  Z " stroke-width="1" stroke="#797979" fill="none" />
  </g>
</svg>