<?xml version="1.0" encoding="utf-8"?>
<svg version="1.1" xmlns:xlink="http://www.w3.org/1999/xlink" width="20px" height="20px" xmlns="http://www.w3.org/2000/svg">
  <g transform="matrix(1 0 0 1 -1390 -409 )">
    <path d="M 20 10  C 20 15.5999999999999  15.5999999999999 20  10 20  C 4.40000000000009 20  0 15.5999999999999  0 10  C 0 4.40000000000009  4.40000000000009 0  10 0  C 15.5999999999999 0  20 4.40000000000009  20 10  Z M 14.4874226439952 10.7166797991072  C 14.8438805729168 10.7166797991072  15.1319487837011 10.3930363616071  15.1319487837011 9.99428957589294  C 15.1319691559436 9.59545142857155  14.8439009252452 9.27180799107146  14.4874429963236 9.27180799107146  L 10.6200823360907 9.27180799107146  L 9.33103003676479 9.27180799107146  L 5.46364898437514 9.27180799107146  C 5.10788391084566 9.27180799107146  4.81918396139713 9.59545142857155  4.81918396139713 9.99428957589294  C 4.81918396139713 10.3930592187501  5.10790428308815 10.7166797991072  5.46364898437514 10.7166797991072  L 9.33100966452207 10.7166797991072  L 10.620061963848 10.7166797991072  L 14.4874226439952 10.7166797991072  Z " fill-rule="nonzero" fill="#cccccc" stroke="none" transform="matrix(1 0 0 1 1390 409 )" />
  </g>
</svg>