<?xml version="1.0" encoding="utf-8"?>
<svg version="1.1" xmlns:xlink="http://www.w3.org/1999/xlink" width="20px" height="20px" xmlns="http://www.w3.org/2000/svg">
  <g transform="matrix(1 0 0 1 -1360 -409 )">
    <path d="M 20 10  C 20 15.5999999999999  15.5999999999999 20  10 20  C 4.40000000000009 20  0 15.5999999999999  0 10  C 0 4.40000000000009  4.40000000000009 0  10 0  C 15.5999999999999 0  20 4.40000000000009  20 10  Z M 5.66432407924117 9.40000000000009  C 5.24176036902168 9.29373604910711  4.89920479910711 9.60994119056659  4.89920479910711 10  C 4.89920479910711 10.3900588094334  5.24176036902168 10.7062639508929  5.66432407924117 10.5999999999999  L 9.40000000000009 10.5999999999999  L 9.40000000000009 14.3361194707666  C 9.29373604910711 14.7586831809861  9.60994119056659 15.1012387509006  10 15.1012387509006  C 10.3900588094334 15.1012387509006  10.7062639508929 14.7586831809861  10.5999999999999 14.3361194707666  L 10.5999999999999 10.5999999999999  L 14.3356759207588 10.5999999999999  C 14.758376607384 10.7062639508929  15.1007952008929 10.3897758184162  15.1007952008929 10  C 15.1007952008929 9.61022418158382  14.758376607384 9.29373604910711  14.3361194707666 9.40000000000009  L 10.5999999999999 9.40000000000009  L 10.5999999999999 5.66432407924117  C 10.7062639508929 5.24162339261602  10.3897758184162 4.89920479910711  10 4.89920479910711  C 9.61022418158382 4.89920479910711  9.29373604910711 5.24162339261602  9.40000000000009 5.66432407924117  L 9.40000000000009 9.40000000000009  L 5.66432407924117 9.40000000000009  Z " fill-rule="nonzero" fill="#cccccc" stroke="none" transform="matrix(1 0 0 1 1360 409 )" />
  </g>
</svg>