<?xml version="1.0" encoding="utf-8"?>
<svg version="1.1" xmlns:xlink="http://www.w3.org/1999/xlink" width="14px" height="14px" xmlns="http://www.w3.org/2000/svg">
  <g transform="matrix(1 0 0 1 -387 -416 )">
    <path d="M 14 7  C 14 10.92  10.92 14  7 14  C 3.07999999999998 14  0 10.92  0 7  C 0 3.07999999999998  3.07999999999998 0  7 0  C 10.92 0  14 3.07999999999998  14 7  Z M 4.96774193548387 7  C 4.96774193548387 8.13806451612902  5.86193548387098 9.0322580645161  7 9.0322580645161  C 8.13806451612902 9.0322580645161  9.03225806451613 8.13806451612902  9.03225806451613 7  C 9.03225806451613 5.86193548387098  8.13806451612902 4.96774193548384  7 4.96774193548384  C 5.86193548387098 4.96774193548384  4.96774193548387 5.86193548387098  4.96774193548387 7  Z " fill-rule="nonzero" fill="#c3c3c3" stroke="none" transform="matrix(1 0 0 1 387 416 )" />
  </g>
</svg>