<?xml version="1.0" encoding="utf-8"?>
<svg version="1.1" xmlns:xlink="http://www.w3.org/1999/xlink" width="14px" height="14px" xmlns="http://www.w3.org/2000/svg">
  <g transform="matrix(1 0 0 1 -707 -170 )">
    <path d="M 14 7  C 14 3.13232323232323  10.8676767676768 0  7 0  C 3.13232323232319 0  0 3.13232323232323  0 7  C 0 10.8676767676768  3.13232323232319 14  7 14  C 10.8676767676768 14  14 10.8676767676768  14 7  Z M 8.11010101010095 9.07878787878788  C 8.13131313131316 9.23434343434343  8.09595959595964 9.48181818181818  8.09595959595964 9.57373737373739  C 7.56565656565658 10.3656565656566  7.02828282828284 10.9808080808081  6.12323232323234 10.9808080808081  C 5.50808080808082 10.8818181818182  5.25353535353537 10.4363636363636  5.38787878787878 9.98383838383839  L 6.55454545454546 6.13030303030303  C 6.58282828282836 6.03838383838385  6.53333333333336 5.93232323232324  6.44848484848484 5.9040404040404  C 6.36363636363637 5.87575757575758  6.19393939393944 5.98181818181818  6.0454545454545 6.14444444444443  L 5.34545454545457 6.99292929292928  C 5.32424242424247 6.85151515151516  5.34545454545457 6.61818181818182  5.34545454545457 6.51919191919193  C 5.87575757575758 5.72727272727274  6.73838383838381 5.0979797979798  7.33232323232323 5.0979797979798  C 7.89090909090908 5.15454545454547  8.15959595959595 5.60000000000001  8.06060606060612 6.09494949494949  L 6.88686868686875 9.96262626262626  C 6.87272727272727 10.0545454545455  6.91515151515148 10.1393939393939  7 10.1676767676768  C 7.08484848484852 10.1959595959596  7.26868686868687 10.089898989899  7.41010101010102 9.92727272727272  L 8.11010101010095 9.07878787878788  Z M 8.74646464646463 3.74747474747475  C 8.74646464646463 4.22121212121211  8.38585858585861 4.54646464646466  7.94040404040402 4.54646464646466  C 7.49494949494954 4.54646464646466  7.13434343434346 4.22121212121211  7.13434343434346 3.74747474747475  C 7.13434343434346 3.27373737373738  7.49494949494954 2.94848484848485  7.94040404040402 2.94848484848485  C 8.38585858585861 2.94848484848485  8.74646464646463 3.27373737373738  8.74646464646463 3.74747474747475  Z " fill-rule="nonzero" fill="#909399" stroke="none" transform="matrix(1 0 0 1 707 170 )" />
  </g>
</svg>