<?xml version="1.0" encoding="utf-8"?>
<svg version="1.1" xmlns:xlink="http://www.w3.org/1999/xlink" width="10px" height="10px" xmlns="http://www.w3.org/2000/svg">
  <g transform="matrix(1 0 0 1 -1220 -215 )">
    <path d="M 9.60095238281247 8.86857143229167  L 5.72761904947902 4.9990476171875  L 9.60285714843758 1.12952381510411  C 9.69748152683053 1.03533301697109  9.75067754927431 0.907322368463383  9.75067754927431 0.77380952473959  C 9.75067754927431 0.640296681015798  9.69748152683053 0.512286032508086  9.60285714843758 0.41809523437496  L 9.5828571484376 0.397142851562535  C 9.48850344382629 0.302460958293295  9.36033522125945 0.249241548872874  9.2266666666668 0.249241548872874  C 9.09299811207381 0.249241548872874  8.96482988950731 0.302460958293295  8.87047618489567 0.397142851562535  L 4.99428571614567 4.26666666666665  L 1.11904761718756 0.397142851562535  C 1.02469391309592 0.302460962288194  0.896525693323383 0.249241555405888  0.762857141927157 0.249241555405888  C 0.62918859053093 0.249241555405888  0.50102037075817 0.302460962288194  0.406666666666752 0.397142851562535  L 0.385714283854327 0.41809523437496  C 0.291089905461149 0.512286032508086  0.237893883017591 0.640296681015798  0.237893883017591 0.77380952473959  C 0.237893883017591 0.907322368463383  0.291089905461149 1.03533301697109  0.385714283854327 1.12952381510411  L 4.26095238281255 4.9990476171875  L 0.385714283854327 8.86857143229167  C 0.291089909459856 8.96276222990804  0.237893889557768 9.09077287562059  0.237893889557768 9.22428571614586  C 0.237893889557768 9.35779855667096  0.291089909459856 9.48580920238368  0.385714283854327 9.57999999999987  L 0.405714283854195 9.60095238281252  C 0.6026678870046 9.79710270340308  0.9211416312246 9.79710270340308  1.11809523437501 9.60095238281252  L 4.99333333333334 5.73047618489585  L 8.86857143229156 9.60095238281252  C 9.06552503544197 9.79710270340308  9.38399877966197 9.79710270340308  9.58095238281237 9.60095238281252  L 9.60095238281247 9.57999999999987  C 9.69557675720671 9.48580920238368  9.7487727771088 9.35779855667096  9.7487727771088 9.22428571614586  C 9.7487727771088 9.09077287562059  9.69557675720671 8.96276222990804  9.60095238281247 8.86857143229167  Z " fill-rule="nonzero" fill="#a9adb1" stroke="none" transform="matrix(1 0 0 1 1220 215 )" />
  </g>
</svg>