<?xml version="1.0" encoding="utf-8"?>
<svg version="1.1" xmlns:xlink="http://www.w3.org/1999/xlink" width="14px" height="14px" xmlns="http://www.w3.org/2000/svg">
  <g transform="matrix(1 0 0 1 -957 -96 )">
    <path d="M 13.0387355324074 12.9655960648148  C 13.0387355324074 12.8350380979939  12.9912384259259 12.7123119212963  12.9050819830247 12.6200183256174  L 9.94431873713989 9.44780574845686  C 10.657232188786 8.42428867669753  11.0339322916666 7.20678288966053  11.0339322916666 5.92535686728399  C 11.0339322916666 5.12945119598771  10.888432034465 4.35729407793212  10.6014801954732 3.63037229938277  C 10.3242955889917 2.92826244212961  9.92752539866257 2.29773582175926  9.42216563786008 1.75626205632716  C 8.91679012345679 1.21478829089506  8.32828285751026 0.789660493827114  7.6729960776749 0.492710744598753  C 6.99458301183125 0.185245466821016  6.27388728137862 0.0293523341049422  5.5310104809671 0.0293523341049422  C 4.78816518775722 0.0293523341049422  4.06750096450617 0.185245466821016  3.38904063786009 0.492710744598753  C 2.73375385802473 0.789677372685219  2.14524659207819 1.21478829089506  1.63987107767491 1.75626205632716  C 1.13449556327163 2.29773582175926  0.73772537294235 2.9282961998457  0.460556520061743 3.63037229938277  C 0.173588927469154 4.35727719907413  0.0280886702674934 5.12943431712961  0.0280886702674934 5.92535686728399  C 0.0280886702674934 6.72127941743827  0.173588927469154 7.49343653549386  0.460556520061743 8.22035831404321  C 0.737741126543199 8.92243441358028  1.13449556327163 9.55296103395062  1.63987107767491 10.0944516782407  C 2.14524659207819 10.6359254436729  2.73376961162552 11.0610701195988  3.38904063786009 11.3580198688272  C 4.06746945730453 11.665468267747  4.78816518775722 11.821361400463  5.5310104809671 11.821361400463  C 6.9582552083333 11.821361400463  8.30969360853908 11.2392095871913  9.33911265432096 10.1815803433642  L 12.2600192901235 13.3110894097223  C 12.3462229938272 13.4034336419753  12.4607516718107 13.4542896412038  12.582605774177 13.4542896412038  C 12.7044598765432 13.4542896412038  12.8189728009259 13.4033998842593  12.9051292438272 13.3110894097223  C 12.9912856867284 13.2188295717593  13.0387355324074 13.0961540316358  13.0387355324074 12.9655960648148  Z M 0.940269418724256 5.92533998842589  C 0.940269418724256 3.21321132330252  2.99964313271607 1.0067057291667  5.53099472736625 1.0067057291667  C 8.06233056841563 1.0067057291667  10.1217200360082 3.21321132330252  10.1217200360082 5.92533998842589  C 10.1217200360082 8.63751929012346  8.06229906121399 10.8439911265432  5.53099472736625 10.8439911265432  C 2.99964313271607 10.8439911265432  0.940269418724256 8.63748553240748  0.940269418724256 5.92533998842589  Z " fill-rule="nonzero" fill="#ffffff" stroke="none" transform="matrix(1 0 0 1 957 96 )" />
  </g>
</svg>