<?xml version="1.0" encoding="utf-8"?>
<svg version="1.1" xmlns:xlink="http://www.w3.org/1999/xlink" width="14px" height="14px" xmlns="http://www.w3.org/2000/svg">
  <g transform="matrix(1 0 0 1 -826 -133 )">
    <path d="M 4.27777291666666 10.2051979166667  C 4.15232708333332 10.2051979166667  4.02688124999997 10.1613020833333  3.93906041666668 10.0672104166667  C 3.74462083333333 9.87904166666664  3.74462083333333 9.57168333333335  3.93906041666668 9.38351458333334  L 6.32257499999997 7  L 3.93906041666668 4.61648541666666  C 3.74462083333333 4.42831666666665  3.74462083333333 4.12724375000002  3.93906041666668 3.939075  C 4.12722916666667 3.74463541666667  4.42830208333334 3.74463541666667  4.61647083333332 3.939075  L 6.99998541666668 6.32258958333334  L 9.38349999999997 3.939075  C 9.57166875000001 3.74463541666667  9.87902708333337 3.74463541666667  10.0671958333333 3.939075  C 10.2553645833333 4.12724375000002  10.2553645833333 4.42831666666665  10.0671958333333 4.61648541666666  L 7.68368124999995 7  L 10.0671958333333 9.38351458333334  C 10.2553645833333 9.57168333333335  10.2553645833333 9.87904166666664  10.0671958333333 10.0672104166667  C 9.97310416666664 10.1613020833333  9.84767291666668 10.2051979166667  9.72221250000001 10.2051979166667  C 9.60303749999997 10.2051979166667  9.47759166666663 10.1613020833333  9.38349999999997 10.0672104166667  L 6.99998541666668 7.68369583333332  L 4.61647083333332 10.0672104166667  C 4.52237916666667 10.1613020833333  4.40320416666668 10.2051979166667  4.27775833333334 10.2051979166667  Z M 7 0  C 3.13620416666663 0  0 3.13620416666665  0 7  C 0 10.8700666666667  3.13620416666663 14  7 14  C 10.8700666666667 14  14 10.8700666666667  14 7  C 14 3.13620416666665  10.8700666666667 0  7 0  Z " fill-rule="nonzero" fill="#f56c6c" stroke="none" transform="matrix(1 0 0 1 826 133 )" />
  </g>
</svg>