<?xml version="1.0" encoding="utf-8"?>
<svg version="1.1" xmlns:xlink="http://www.w3.org/1999/xlink" width="12px" height="12px" viewBox="183 314  12 12" xmlns="http://www.w3.org/2000/svg">
  <path d="M 189 314  C 192.36 314  195 316.64  195 320  C 195 323.36  192.36 326  189 326  C 185.64 326  183 323.36  183 320  C 183 316.64  185.64 314  189 314  Z " fill-rule="nonzero" fill="#ffffff" stroke="none" />
  <path d="M 189 314.5  C 192.08 314.5  194.5 316.92  194.5 320  C 194.5 323.08  192.08 325.5  189 325.5  C 185.92 325.5  183.5 323.08  183.5 320  C 183.5 316.92  185.92 314.5  189 314.5  Z " stroke-width="1" stroke="#797979" fill="none" />
  <path d="M 189 323  C 187.32 323  186 321.68  186 320  C 186 318.32  187.32 317  189 317  C 190.68 317  192 318.32  192 320  C 192 321.68  190.68 323  189 323  " fill-rule="nonzero" fill="#797979" stroke="none" />
</svg>