<?xml version="1.0" encoding="utf-8"?>
<svg version="1.1" xmlns:xlink="http://www.w3.org/1999/xlink" width="12px" height="12px" viewBox="183 346  12 12" xmlns="http://www.w3.org/2000/svg">
  <path d="M 189 346  C 192.36 346  195 348.64  195 352  C 195 355.36  192.36 358  189 358  C 185.64 358  183 355.36  183 352  C 183 348.64  185.64 346  189 346  Z " fill-rule="nonzero" fill="#ffffff" stroke="none" />
  <path d="M 189 346.5  C 192.08 346.5  194.5 348.92  194.5 352  C 194.5 355.08  192.08 357.5  189 357.5  C 185.92 357.5  183.5 355.08  183.5 352  C 183.5 348.92  185.92 346.5  189 346.5  Z " stroke-width="1" stroke="#797979" fill="none" />
  <path d="M 189 355  C 187.32 355  186 353.68  186 352  C 186 350.32  187.32 349  189 349  C 190.68 349  192 350.32  192 352  C 192 353.68  190.68 355  189 355  " fill-rule="nonzero" fill="#797979" stroke="none" />
</svg>