<?xml version="1.0" encoding="utf-8"?>
<svg version="1.1" xmlns:xlink="http://www.w3.org/1999/xlink" width="12px" height="12px" viewBox="183 282  12 12" xmlns="http://www.w3.org/2000/svg">
  <path d="M 189 282  C 192.36 282  195 284.64  195 288  C 195 291.36  192.36 294  189 294  C 185.64 294  183 291.36  183 288  C 183 284.64  185.64 282  189 282  Z " fill-rule="nonzero" fill="#ffffff" stroke="none" />
  <path d="M 189 282.5  C 192.08 282.5  194.5 284.92  194.5 288  C 194.5 291.08  192.08 293.5  189 293.5  C 185.92 293.5  183.5 291.08  183.5 288  C 183.5 284.92  185.92 282.5  189 282.5  Z " stroke-width="1" stroke="#797979" fill="none" />
  <path d="M 189 291  C 187.32 291  186 289.68  186 288  C 186 286.32  187.32 285  189 285  C 190.68 285  192 286.32  192 288  C 192 289.68  190.68 291  189 291  " fill-rule="nonzero" fill="#797979" stroke="none" />
</svg>