<?xml version="1.0" encoding="utf-8"?>
<svg version="1.1" xmlns:xlink="http://www.w3.org/1999/xlink" width="10px" height="10px" xmlns="http://www.w3.org/2000/svg">
  <g transform="matrix(1 0 0 1 -1403 -314 )">
    <path d="M 0.83108084542414 4.3209000472184  L 4.32090004721852 4.32090004694498  L 4.32090004721852 0.831080845424083  C 4.32090004721852 0.424637877515408  4.62521555921535 0.0953892299106656  5 0.0953892299106656  C 5.37478444078465 0.0953892299106656  5.67909995278148 0.424637877515408  5.67909995278148 0.831080845424083  L 5.67909954552465 4.3209000472184  L 9.16934564496796 4.3209000472184  C 9.57536212248453 4.3209000472184  9.90461077008933 4.62521555921529  9.90461077008933 5  C 9.90461077008933 5.37478444078471  9.57536212248453 5.6790999527816  9.16891915457586 5.6790999527816  L 5.67909995278148 5.6790999530682  L 5.67909995278148 9.1693456449679  C 5.67909995278148 9.57565690479436  5.37505654753204 9.90503726048127  5 9.90503726048127  C 4.62494345246796 9.90503726048127  4.32090004721852 9.57565690479436  4.32090004721852 9.1693456449679  L 4.3209004584462 5.6790999527816  L 0.83108084542414 5.6790999527816  C 0.424769585597687 5.6790999527816  0.0953892299106656 5.3750565475321  0.0953892299106656 5  C 0.0953892299106656 4.6249434524679  0.424769585597687 4.3209000472184  0.83108084542414 4.3209000472184  Z " fill-rule="nonzero" fill="#999999" stroke="none" transform="matrix(1 0 0 1 1403 314 )" />
  </g>
</svg>