<?xml version="1.0" encoding="utf-8"?>
<svg version="1.1" xmlns:xlink="http://www.w3.org/1999/xlink" width="14px" height="14px" xmlns="http://www.w3.org/2000/svg">
  <g transform="matrix(1 0 0 1 -890 -542 )">
    <path d="M 6.0040650462081 7.96747967479672  C 6.00406506288111 8.27100271595526  6.21747968035444 8.49864499237808  6.50203251476754 8.49864499237808  L 7.49796748523246 8.49864499237808  C 7.78252033631858 8.49864499237808  7.99593497046493 8.27100271595526  7.9959349537919 7.96747967479672  C 7.99593493711889 7.66395663363821  7.78252031964556 7.43631435721545  7.49796748523246 7.43631435721545  L 6.50203251476754 7.43631435721545  C 6.21747966368142 7.43631435721545  6.00406502953507 7.66395663363821  6.0040650462081 7.96747967479672  Z M 6.0040650462081 10.0921409273374  C 6.00406506288111 10.3956639684959  6.21747968035444 10.6233062449187  6.50203251476754 10.6233062271341  L 7.49796748523246 10.6233062271341  C 7.78252033631858 10.6233062271341  7.99593497046493 10.3956639507114  7.9959349537919 10.0921409273374  C 7.99593493711889 9.78861790396343  7.78252031964556 9.5609756097561  7.49796748523246 9.5609756097561  L 6.50203251476754 9.5609756097561  C 6.21747966368142 9.5609756097561  6.00406502953507 9.78861788617886  6.0040650462081 10.0921409273374  Z M 13.9359756097561 3.22493224339431  C 13.9359756097561 2.04878048780486  13.0467479730374 1.10027099085363  11.9441056854992 1.1002710086382  L 9.9522357779154 1.1002710086382  L 9.9522357779154 0.569105691056933  C 9.9522357779154 0.265582649898377  9.73882114376906 0.037940373475621  9.45426829268294 0.037940373475621  C 9.16971544159682 0.037940373475621  8.95630080745048 0.265582649898377  8.95630080745048 0.569105691056933  L 8.95630080745048 1.1002710086382  L 5.00813007574317 1.1002710086382  L 5.00813007574317 0.569105691056933  C 5.00813007574317 0.265582649898377  4.79471544159682 0.037940373475621  4.51016260718367 0.037940373475621  C 4.22560977277057 0.037940373475621  4.01219512195121 0.265582649898377  4.01219512195121 0.569105691056933  L 4.01219512195121 1.1002710086382  L 2.02032519769436 1.1002710086382  C 0.917682926829286 1.1002710086382  0.0284552734375154 2.04878048780486  0.0284552901105428 3.22493224339431  L 0.0284552901105428 11.6856368622967  C 0.0284552901105428 12.8617886178862  0.917682926829286 13.8102981148374  2.02032519769436 13.8102980970529  L 11.9441056854992 13.8102980970529  C 13.0467479563644 13.8102980970529  13.9359756097561 12.8617886178862  13.9359756097561 11.6856368622967  L 13.9359756097561 3.22493224339431  Z M 12.9400406559642 5.34959349593498  L 12.9400406559642 11.6856368622967  C 12.9400406559642 12.2547425533537  12.4776422875381 12.7479674796748  11.9441056854992 12.7479674796748  L 2.05589431450079 12.7479674796748  C 1.52235772913491 12.7479674796748  1.05995936070883 12.2547425533537  1.0599593440358 11.6856368622967  L 1.0599593440358 5.34959349593498  L 12.9400406559642 5.34959349593498  Z M 12.9756097560976 4.2872628785569  L 12.9400406559642 4.2872628785569  L 1.0599593440358 4.2872628785569  L 1.0599593440358 3.22493224339431  C 1.0599593440358 2.65582655233743  1.5223577124619 2.16260162601623  2.05589431450079 2.16260162601623  L 4.0477642220846 2.16260162601623  L 4.0477642220846 2.69376694359755  C 4.0477642220846 2.99728998475607  4.26117885623094 3.22493226117888  4.54573170731706 3.22493224339431  C 4.83028455840318 3.22493222560973  5.04369919254952 2.99728996697149  5.04369919254952 2.69376694359755  L 5.04369919254952 2.16260162601623  L 8.99186992425683 2.16260162601623  L 8.99186992425683 2.69376694359755  C 8.99186992425683 2.99728998475607  9.20528455840318 3.22493226117888  9.48983739281633 3.22493224339431  C 9.77439024390245 3.22493224339431  9.98780487804879 2.99728996697149  9.98780487804879 2.69376694359755  L 9.98780487804879 2.16260162601623  L 11.9796748023056 2.16260162601623  C 12.5132113876715 2.16260162601623  12.9756097560976 2.65582655233743  12.9756097560976 3.22493224339431  L 12.9756097560976 4.2872628785569  Z M 3.01626016815929 10.0921409273374  C 3.01626018483231 10.3956639684959  3.26524390243904 10.6233062449187  3.54979675352516 10.6233062271341  L 4.51016260718367 10.6233062271341  C 4.79471545826983 10.6233062271341  5.00813009241618 10.3956639507114  5.00813007574317 10.0921409273374  C 5.00813005907014 9.78861790396343  4.79471544159682 9.5609756097561  4.51016260718367 9.5609756097561  L 3.51422763671874 9.5609756097561  C 3.22967478563262 9.5609756097561  3.01626015148628 9.78861788617886  3.01626016815929 10.0921409273374  Z M 8.99186992425683 7.96747967479672  C 8.99186994092986 8.27100271595526  9.20528455840318 8.49864499237808  9.48983739281633 8.49864499237808  L 10.4857723632813 8.49864499237808  C 10.7703252143674 8.49864499237808  10.9837398485137 8.27100271595526  10.9837398318407 7.96747967479672  C 10.9837398151677 7.66395663363821  10.7703251976944 7.43631435721545  10.4857723632813 7.43631435721545  L 9.48983739281633 7.43631435721545  C 9.20528454173017 7.43631435721545  8.99186990758382 7.66395663363821  8.99186992425683 7.96747967479672  Z M 3.01626016815929 7.96747967479672  C 3.01626018483231 8.27100271595526  3.26524390243904 8.49864499237808  3.54979675352516 8.49864499237808  L 4.51016260718367 8.49864499237808  C 4.79471545826983 8.49864499237808  5.00813009241618 8.27100271595526  5.00813007574317 7.96747967479672  C 5.00813005907014 7.66395663363821  4.79471544159682 7.43631435721545  4.51016260718367 7.43631435721545  L 3.51422763671874 7.43631435721545  C 3.22967478563262 7.43631435721545  3.01626015148628 7.66395663363821  3.01626016815929 7.96747967479672  Z M 8.99186992425683 10.0921409273374  C 8.99186994092986 10.3956639684959  9.20528455840318 10.6233062271341  9.48983739281633 10.6233062271341  L 10.4857723632813 10.6233062271341  C 10.7703252143674 10.6233062271341  10.9837398485137 10.3956639507114  10.9837398318407 10.0921409273374  C 10.9837398151677 9.78861790396343  10.7703251976944 9.5609756097561  10.4857723632813 9.5609756097561  L 9.48983739281633 9.5609756097561  C 9.20528454173017 9.5609756097561  8.99186990758382 9.78861788617886  8.99186992425683 10.0921409273374  Z " fill-rule="nonzero" fill="#c0c4cc" stroke="none" transform="matrix(1 0 0 1 890 542 )" />
  </g>
</svg>