<?xml version="1.0" encoding="utf-8"?>
<svg version="1.1" xmlns:xlink="http://www.w3.org/1999/xlink" width="12px" height="12px" xmlns="http://www.w3.org/2000/svg">
  <g transform="matrix(1 0 0 1 -1185 -216 )">
    <path d="M 11.521142859375 10.64228571875  L 6.87314285937498 5.99885714062501  L 11.5234285781249 1.35542857812499  C 11.6369778321966 1.24239962036535  11.700813059129 1.08878684215603  11.700813059129 0.928571429687509  C 11.700813059129 0.768356017218991  11.6369778321966 0.61474323900967  11.5234285781249 0.501714281250003  L 11.499428578125 0.476571421875008  C 11.3862041325914 0.362953149951977  11.2324022655113 0.299089858647392  11.072 0.299089858647392  C 10.9115977344887 0.299089858647392  10.7577958674086 0.362953149951977  10.644571421875 0.476571421875008  L 5.99314285937498 5.11999999999998  L 1.34285714062503 0.476571421875008  C 1.22963269571517 0.362953154745782  1.0758308319879 0.299089866487066  0.915428570312429 0.299089866487066  C 0.755026308637071 0.299089866487066  0.601224444909803 0.362953154745782  0.487999999999943 0.476571421875008  L 0.462857140625033 0.501714281250003  C 0.349307886553333 0.61474323900967  0.28547265962095 0.768356017218991  0.28547265962095 0.928571429687509  C 0.28547265962095 1.08878684215603  0.349307886553333 1.24239962036535  0.462857140625033 1.35542857812499  L 5.11314285937499 5.99885714062501  L 0.462857140625033 10.64228571875  C 0.349307891351827 10.7553146758897  0.285472667469321 10.9089274507447  0.285472667469321 11.069142859375  C 0.285472667469321 11.2293582680053  0.349307891351827 11.3829710428604  0.462857140625033 11.496  L 0.486857140625034 11.521142859375  C 0.72320146440552 11.7565232440838  1.10536995746952 11.7565232440838  1.34171428125001 11.521142859375  L 5.99199999999996 6.87657142187498  L 10.64228571875 11.521142859375  C 10.8786300425305 11.7565232440838  11.2607985355945 11.7565232440838  11.497142859375 11.521142859375  L 11.521142859375 11.496  C 11.6346921086481 11.3829710428604  11.6985273325306 11.2293582680053  11.6985273325306 11.069142859375  C 11.6985273325306 10.9089274507447  11.6346921086481 10.7553146758897  11.521142859375 10.64228571875  Z " fill-rule="nonzero" fill="#a9adb1" stroke="none" transform="matrix(1 0 0 1 1185 216 )" />
  </g>
</svg>