<?xml version="1.0" encoding="utf-8"?>
<svg version="1.1" xmlns:xlink="http://www.w3.org/1999/xlink" width="8px" height="8px" xmlns="http://www.w3.org/2000/svg">
  <g transform="matrix(1 0 0 1 -1169 -272 )">
    <path d="M 7.68076190624993 7.09485714583332  L 4.58209523958328 3.99923809374997  L 7.68228571874999 0.903619052083286  C 7.75798522146442 0.828266413576898  7.80054203941938 0.725857894770684  7.80054203941938 0.619047619791672  C 7.80054203941938 0.512237344812661  7.75798522146442 0.409828826006446  7.68228571874999 0.334476187499945  L 7.66628571875003 0.317714281250005  C 7.59080275506096 0.241968766634614  7.48826817700751 0.199393239098299  7.38133333333337 0.199393239098299  C 7.27439848965912 0.199393239098299  7.17186391160578 0.241968766634614  7.0963809479166 0.317714281250005  L 3.99542857291658 3.4133333333333  L 0.895238093750095 0.317714281250005  C 0.819755130476779 0.241968769830521  0.717220554658638 0.19939324432471  0.610285713541657 0.19939324432471  C 0.503350872424789 0.19939324432471  0.400816296606536 0.241968769830521  0.325333333333333 0.317714281250005  L 0.308571427083393 0.334476187499945  C 0.232871924368965 0.409828826006446  0.190315106414005 0.512237344812661  0.190315106414005 0.619047619791672  C 0.190315106414005 0.725857894770684  0.232871924368965 0.828266413576898  0.308571427083393 0.903619052083286  L 3.40876190624999 3.99923809374997  L 0.308571427083393 7.09485714583332  C 0.232871927567885 7.1702097839264  0.190315111646214 7.27261830049645  0.190315111646214 7.37942857291665  C 0.190315111646214 7.4862388453368  0.232871927567885 7.58864736190691  0.308571427083393 7.66399999999993  L 0.324571427083356 7.68076190624998  C 0.48213430960368 7.83768216272244  0.73691330497968 7.83768216272244  0.894476187500004 7.68076190624998  L 3.99466666666672 4.58438094791671  L 7.09485714583332 7.68076190624998  C 7.25242002835364 7.83768216272244  7.50719902372964 7.83768216272244  7.66476190624996 7.68076190624998  L 7.68076190624993 7.66399999999993  C 7.75646140576532 7.58864736190691  7.79901822168699 7.4862388453368  7.79901822168699 7.37942857291665  C 7.79901822168699 7.27261830049645  7.75646140576532 7.1702097839264  7.68076190624993 7.09485714583332  Z " fill-rule="nonzero" fill="#a9adb1" stroke="none" transform="matrix(1 0 0 1 1169 272 )" />
  </g>
</svg>