<?xml version="1.0" encoding="utf-8"?>
<svg version="1.1" xmlns:xlink="http://www.w3.org/1999/xlink" width="17px" height="17px" xmlns="http://www.w3.org/2000/svg">
  <g transform="matrix(1 0 0 1 -24 -152 )">
    <path d="M 7.62609758465152 1.71722722668756  L 7.62609758465152 5.93239489572443  C 7.62609758465152 6.87305467107285  6.86290267144869 7.63624958427567  5.92224289610022 7.63624958427567  L 1.71598731339071 7.63624958427567  C 0.775350390665608 7.62736035057173  0.0121326248394098 6.86416543736891  0.0121326248394098 5.93239489572443  L 0.0121326248394098 1.71722722668756  C 0.0121326248394098 0.776590303962394  0.775327538042234 0.0133496855128215  1.71598731339071 0.0133496855128215  L 5.92224289610022 0.0133496855128215  C 6.86287981882538 0.0133496855128215  7.62609758465152 0.776567451339133  7.62609758465152 1.71722722668756  Z M 6.64103729923261 1.71722722668756  L 6.64990369591226 1.71722722668756  C 6.64990369591226 1.31785128707907  6.33046236416607 0.998387102709557  5.93110927718089 0.998387102709557  L 1.7159644607674 0.998387102709557  C 1.31661137378228 0.998387102709557  0.997124336789284 1.31785128707907  0.997124336789284 1.71722722668756  L 0.997124336789284 5.93239489572443  C 0.997124336789284 6.33179368795618  1.31658852115891 6.65114360920916  1.7159644607674 6.65114360920916  L 5.9222200434769 6.65114360920916  C 6.32157313046207 6.65114360920916  6.64103731483169 6.33174798270943  6.64103729923261 5.93239489572443  L 6.64103729923261 1.71722722668756  Z M 2.22180560920913 3.70505769146439  C 2.22180560920913 3.8381449117619  2.11527184250588 3.9446329732184  1.97336393077529 3.94461012059514  C 1.84025385785435 3.94461012059514  1.72487654709477 3.83812205913864  1.72487654709477 3.69609989989044  L 1.72487654709477 3.25241487630387  C 1.72487654709477 2.56910886571654  2.17738224651521 1.97460384407213  2.80744423417383 1.97460384407213  L 4.34274614690685 1.97460384407213  C 4.47576482493338 1.97460384407213  4.59118782534063 2.08106905290515  4.59118782534063 2.22309121215358  C 4.59118782534063 2.35613272720434  4.48467691126075 2.47157859583399  4.34274614690685 2.47157859583399  L 2.80746708679715 2.47157859583399  C 2.42589248281911 2.47157859583399  2.22180559361004 2.89750798903674  2.22180560920913 3.26130411000781  L 2.22180560920913 3.70505769146439  Z M 1.88456294183243 4.78764823116671  C 1.82245252222395 4.78764823116671  1.76031924999211 4.76107192494919  1.70709807968683 4.7167171201254  C 1.66276614308538 4.6722709204073  1.63609842637425 4.60131697234146  1.63609841077522 4.53913799486304  C 1.63609841077522 4.47705042787788  1.66276612748624 4.41489430302272  1.70709807968683 4.36167313271744  C 1.79576195288962 4.2730321121378  1.9644746970713 4.2730321121378  2.0531614228974 4.36167313271744  C 2.09760762261556 4.40611933243531  2.12416107620982 4.46820689942047  2.12416107620982 4.53913799486304  C 2.12416107620982 4.60127126709472  2.09758476999218 4.66340453932662  2.0531614228974 4.70780503379797  C 2.00878378104937 4.7610490723257  1.94667336144084 4.78762537854345  1.8845857944558 4.78762537854345  Z M 15.9855018116837 5.93239489572443  C 15.9855018116837 6.87305467107285  15.2222840458575 7.63624958427567  14.2816471231324 7.63624958427567  L 10.0664337488489 7.63624958427567  C 9.12579682612375 7.63624958427567  8.36260191292092 6.87307752369611  8.36260191292092 5.93239489572443  L 8.36260191292092 1.71722722668756  C 8.36260191292092 0.776590303962394  9.12577397350049 0.0133496855128215  10.0664337488489 0.0133496855128215  L 14.2816471231324 0.0133496855128215  C 15.2222383406108 0.0133496855128215  15.9854561064369 0.776567451339133  15.9854561064369 1.71722722668756  L 15.9854561064369 5.93239489572443  Z M 15.0003958366171 5.93239489572443  L 15.0004186892404 1.71722722668756  C 15.0004186892404 1.31785128707907  14.6810002101174 0.998387102709557  14.2816471231324 0.998387102709557  L 10.0664337488489 0.998387102709557  C 9.66712636711043 0.998387102709557  9.3475936248708 1.31785128707907  9.34759364046988 1.71722722668756  L 9.34759364046988 5.93239489572443  C 9.34759364046988 6.33179368795618  9.66712638270945 6.65114360920916  10.0664337488489 6.65114360920916  L 14.2816471231324 6.65114360920916  C 14.6810002101174 6.65114360920916  15.0003958366171 6.33174798270943  15.0003958366171 5.93239489572443  Z M 7.62609758465152 10.0677193673923  L 7.62609758465152 14.2829327416757  C 7.62609758465152 15.2235239591541  6.86290267144869 15.9867417249804  5.92224289610022 15.9867417249804  L 1.71598731339071 15.9867417249804  C 0.775350390665608 15.9867417249804  0.0121326248394098 15.2235468117776  0.0121326248394098 14.2829327416757  L 0.0121326248394098 10.0677193673923  C 0.0121326248394098 9.12703673942042  0.775327538042234 8.36384182621759  1.71598731339071 8.36384182621759  L 5.92224289610022 8.36384182621759  C 6.86287981882538 8.36384182621759  7.62609758465152 9.12703673942042  7.62609758465152 10.0677193673923  Z M 6.64103729923261 10.0677193673923  L 6.64990369591226 10.0677193673923  C 6.64990369591226 9.66834342778384  6.33046236416607 9.34890209603759  5.93110927718089 9.34890209603759  L 1.7159644607674 9.34890209603759  C 1.31661137378228 9.34890209603759  0.997124336789284 9.66834342778384  0.997124336789284 10.0677193673923  L 0.997124336789284 14.2829327416757  C 0.997124336789284 14.682285828661  1.31658852115891 15.0016586025372  1.7159644607674 15.0016586025372  L 5.9222200434769 15.0016586025372  C 6.32157313046207 15.0016586025372  6.64103731483169 14.6822629760377  6.64103729923261 14.2829327416757  L 6.64103729923261 10.0677193673923  Z M 15.9855018116837 14.2829327416757  C 15.9855018116837 15.2235239591541  15.2222840458575 15.9867417249804  14.2816471231324 15.9867417249804  L 10.0664337488489 15.9867417249804  C 9.12579682612375 15.9867417249804  8.36260191292092 15.2235468117776  8.36260191292092 14.2829327416757  L 8.36260191292092 10.0677193673923  C 8.36260191292092 9.12703673942042  9.12577397350049 8.36384182621759  10.0664337488489 8.36384182621759  L 14.2816471231324 8.36384182621759  C 15.2222383406108 8.36384182621759  15.9854561064369 9.12703673942042  15.9854561064369 10.0677193673923  L 15.9854561064369 14.2829327416757  Z M 15.0003958366171 14.2829327416757  L 15.0004186892404 10.0677193673923  C 15.0004186892404 9.66834342778384  14.6810002101174 9.34890209603759  14.2816471231324 9.34890209603759  L 10.0664337488489 9.34890209603759  C 9.66712636711043 9.34890209603759  9.3475936248708 9.66834342778384  9.34759364046988 10.0677193673923  L 9.34759364046988 14.2829327416757  C 9.34759364046988 14.682285828661  9.66712638270945 15.0016586025372  10.0664337488489 15.0016586025372  L 14.2816471231324 15.0016586025372  C 14.6810002101174 15.0016586025372  15.0003958366171 14.6822629760377  15.0003958366171 14.2829327416757  Z " fill-rule="nonzero" fill="#ffffff" stroke="none" fill-opacity="0.6" transform="matrix(1 0 0 1 24 152 )" />
  </g>
</svg>