<?xml version="1.0" encoding="utf-8"?>
<svg version="1.1" xmlns:xlink="http://www.w3.org/1999/xlink" width="16px" height="16px" xmlns="http://www.w3.org/2000/svg">
  <g transform="matrix(1 0 0 1 -260 -22 )">
    <path d="M 15.27179909375 2.35720409374999  C 16.196779859375 3.28220684374997  16.19686778125 4.78733928125002  15.271887015625 5.71232003124999  L 13.620518734375 7.36368831250002  C 12.69553796875 8.28866907812499  11.19040553125 8.28866907812499  10.265424765625 7.36368831250002  L 8.61414440624998 5.71232003124999  C 7.689163640625 4.787339265625  7.68907571875002 3.28227276562502  8.61414440624998 2.35720409374999  L 10.265424765625 0.705923734375006  C 11.19040553125 -0.219057031249974  12.69553796875 -0.219057031249974  13.620518734375 0.705923734375006  L 15.27179909375 2.35720409374999  Z M 2.39651609374999 8.89871414062497  L 4.73184965625001 8.89871414062497  C 6.03992746875002 8.89871414062497  7.10417628124998 9.96305087500002  7.10417628124998 11.271216625  L 7.10417628124998 13.606484234375  C 7.10417628124998 14.91464996875  6.03992746875002 15.97889878125  4.73184965625001 15.97889878125  L 2.39651609374999 15.97889878125  C 1.08832839062501 15.97889878125  0.0240795624999919 14.91464996875  0.0240795624999919 13.606484234375  L 0.0240795624999919 11.271216625  C 0.0240795624999919 9.96305089062503  1.088328375 8.89871415624998  2.39651609374999 8.89871414062497  Z M 13.1546147757198 9.01839873376053  C 14.440646332953 9.01839873376053  15.4870448077598 10.0647972085674  15.4870448231215 11.3509152212079  L 15.4870448231215 13.6468243877282  C 15.4870448231215 14.932942385007  14.4407327883603 15.9792544197683  13.1546147757198 15.9792544197683  L 10.8587272230513 15.9792544197683  C 9.57258761192065 15.9792544197683  8.52627557715942 14.932942385007  8.52627557715942 13.6468243877282  L 8.52627557715942 11.3509152212079  C 8.52627557715942 10.0647972239291  9.57258761192065 9.01839874912218  10.8587272230513 9.01839873376053  L 13.1546147757198 9.01839873376053  Z M 2.35612537306884 0.552069822048622  L 4.65209938114464 0.552069822048622  C 5.93813093837781 0.552069822048622  6.98444297313904 1.58675616753471  6.98444297313904 2.85860533854168  L 6.98444297313904 5.12898304470486  C 6.98444297313904 6.40083221571183  5.93813093837781 7.43551856119791  4.65209938114464 7.43551856119791  L 2.35612537306884 7.43551856119791  C 1.06998577729985 7.43551856119791  0.0236737271769698 6.40083220052083  0.0236737271769698 5.12898304470486  L 0.0236737271769698 2.85860533854168  C 0.0236737271769698 1.58675616753471  1.0699857619382 0.552069822048622  2.35612537306884 0.552069822048622  Z M 10.97840421875 6.65062095312499  C 11.51022090625 7.18243764062499  12.3756346875 7.18243764062499  12.907539296875 6.65062095312499  L 14.55881965625 4.99934059375  C 15.09063634375 4.46741401562503  15.09063634375 3.60211012500003  14.55881965625 3.070205515625  L 12.907539296875 1.41892515625  C 12.375722609375 0.88710846875  11.510308828125 0.88710846875  10.97840421875 1.41892515625  L 9.32712385937498 3.070205515625  C 8.79530717187498 3.60202220312499  8.79530717187498 4.46741400000001  9.32712385937498 4.99934059375  L 10.97840421875 6.65062095312499  Z " fill-rule="nonzero" fill="#ffffff" stroke="none" transform="matrix(1 0 0 1 260 22 )" />
  </g>
</svg>