<?xml version="1.0" encoding="utf-8"?>
<svg version="1.1" xmlns:xlink="http://www.w3.org/1999/xlink" width="24px" height="24px" xmlns="http://www.w3.org/2000/svg">
  <g transform="matrix(1 0 0 1 -546 -100 )">
    <path d="M 23.9486979166667 22.9437275985663  C 23.9486979166667 22.7126941457586  23.8614583333333 22.4955197132616  23.7032118055556 22.3321983273597  L 18.2650752314814 16.718697729988  C 19.5745081018518 14.9074970131422  20.26640625 12.7530167264039  20.26640625 10.4854241338112  C 20.26640625 9.07700119474308  19.9991608796297 7.7106033452807  19.4721064814814 6.42425328554359  C 18.9629918981482 5.18181003584232  18.234230324074 4.06603942652328  17.3060185185185 3.1078554360812  C 16.3777777777777 2.1496714456392  15.2968460648149 1.39737156511347  14.0932581018519 0.871893667861428  C 12.847193287037 0.327807646356007  11.5234664351852 0.0519414575866506  10.1589988425926 0.0519414575866506  C 8.79458912037035 0.0519414575866506  7.47092013888891 0.327807646356007  6.22476851851854 0.871893667861428  C 5.02118055555559 1.39740143369178  3.94024884259261 2.1496714456392  3.01200810185185 3.1078554360812  C 2.08376736111109 4.06603942652328  1.35500578703704 5.18186977299877  0.845920138888914 6.42425328554359  C 0.31883680555552 7.71057347670256  0.0515914351851734 9.07697132616494  0.0515914351851734 10.4854241338112  C 0.0515914351851734 11.8938769414576  0.31883680555552 13.26027479092  0.845920138888914 14.5466248506572  C 1.35503472222217 15.7890083632019  2.08376736111109 16.9047789725209  3.01200810185185 17.8629928315412  C 3.94024884259261 18.8211768219832  5.02120949074072 19.5735065710872  6.22476851851854 20.0989844683392  C 7.47086226851854 20.6430406212664  8.79458912037035 20.9189068100358  10.1589988425926 20.9189068100358  C 12.78046875 20.9189068100358  15.2627025462963 19.8887395459977  17.1534722222223 18.017174432497  L 22.5184027777777 23.5551075268817  C 22.676736111111 23.7185185185186  22.8870949074073 23.8085125448028  23.1109085648148 23.8085125448028  C 23.3347222222222 23.8085125448028  23.5450520833333 23.7184587813619  23.7032986111111 23.5551075268817  C 23.8615451388889 23.3918458781362  23.9486979166667 23.1747610513739  23.9486979166667 22.9437275985663  Z M 1.72702546296296 10.4853942652329  C 1.72702546296296 5.68605137395463  5.50954861111109 1.78145161290323  10.1589699074074 1.78145161290323  C 14.8083622685185 1.78145161290323  18.5909143518519 5.68605137395463  18.5909143518519 10.4853942652329  C 18.5909143518519 15.284826762246  14.8083043981482 19.189366786141  10.1589699074074 19.189366786141  C 5.50954861111109 19.189366786141  1.72702546296296 15.2847670250896  1.72702546296296 10.4853942652329  Z " fill-rule="nonzero" fill="#53b467" stroke="none" transform="matrix(1 0 0 1 546 100 )" />
  </g>
</svg>