<?xml version="1.0" encoding="utf-8"?>
<svg version="1.1" xmlns:xlink="http://www.w3.org/1999/xlink" width="10px" height="10px" xmlns="http://www.w3.org/2000/svg">
  <g transform="matrix(1 0 0 1 -1736 -111 )">
    <path d="M 7.41788583331027 6.6876519822255  L 5.72761904947902 4.99904761718742  L 9.60285714843758 1.12952381510419  C 9.69748152683042 1.03533301697111  9.75067754927431 0.907322368463312  9.75067754927431 0.77380952473959  C 9.75067754927431 0.640296681015869  9.69748152683042 0.512286032508072  9.60285714843758 0.418095234374888  L 9.5828571484376 0.397142851562521  C 9.48850344382618 0.302460958293224  9.36033522125945 0.249241548872789  9.22666666666692 0.249241548872789  C 9.09299811207393 0.249241548872789  8.9648298895072 0.302460958293224  8.87047618489578 0.397142851562521  L 4.99428571614567 4.26666666666658  L 1.11904761718756 0.397142851562521  C 1.02469391309592 0.30246096228818  0.896525693323383 0.249241555405888  0.76285714192727 0.249241555405888  C 0.62918859053093 0.249241555405888  0.50102037075817 0.30246096228818  0.406666666666752 0.397142851562521  L 0.385714283854213 0.418095234374888  C 0.291089905461149 0.512286032508072  0.237893883017477 0.640296681015869  0.237893883017477 0.77380952473959  C 0.237893883017477 0.907322368463312  0.291089905461149 1.03533301697111  0.385714283854213 1.12952381510419  L 4.26095238281255 4.99904761718742  L 0.385714283854213 8.8685714322916  C 0.29108990945997 8.96276222990802  0.237893889557654 9.09077287562052  0.237893889557654 9.22428571614584  C 0.237893889557654 9.35779855667104  0.29108990945997 9.48580920238366  0.385714283854213 9.57999999999996  L 0.405714283854195 9.60095238281244  C 0.6026678870046 9.79710270340307  0.9211416312246 9.79710270340307  1.11809523437501 9.60095238281244  L 4.99333333333334 5.73047618489593  L 8.86857143229145 9.60095238281244  C 9.06552503544208 9.79710270340307  9.38399877966185 9.79710270340307  9.58095238281248 9.60095238281244  L 9.60095238281247 9.57999999999996  C 9.69557675720671 9.48580920238366  9.7487727771088 9.35779855667104  9.7487727771088 9.22428571614584  C 9.7487727771088 9.09077287562052  9.69557675720671 8.96276222990802  9.60095238281247 8.8685714322916  L 7.41788583331027 6.6876519822255  Z " fill-rule="nonzero" fill="#a9adb1" stroke="none" transform="matrix(1 0 0 1 1736 111 )" />
  </g>
</svg>