<?xml version="1.0" encoding="utf-8"?>
<svg version="1.1" xmlns:xlink="http://www.w3.org/1999/xlink" width="14px" height="14px" xmlns="http://www.w3.org/2000/svg">
  <g transform="matrix(1 0 0 1 -877 -133 )">
    <path d="M 14 7  C 14 10.92  10.92 14  7 14  C 3.07999999999998 14  0 10.92  0 7  C 0 3.08  3.07999999999998 0  7 0  C 10.92 0  14 3.08  14 7  Z M 5.96969545386673 7.34865434947369  L 4.67184972800004 5.98780447999999  L 3.14831904426666 7.32081657263158  L 5.8568663552 10.2338230400001  C 6.57472435200003 9.12011885473686  7.31745626453335 8.1315138357895  7.86939226453336 7.4355916968421  C 8.19523520853329 7.02476909473687  8.50126866773331 6.65110561684215  8.79418277546665 6.31495777684209  C 9.0592793088 6.01071791157894  9.32211457706671 5.73175338105261  9.57477415253334 5.46927760842105  C 10.0054514858667 5.02179351578944  10.5089375402666 4.52609837473686  10.8255547903999 4.31380190315795  L 10.4211964416 3.71866915368417  C 9.8349467477334 4.12586720000002  9.27062731093332 4.56079904000001  8.83490561706668 4.89501576421056  C 8.58099498666667 5.08980592842107  8.34537518080003 5.27702760421051  8.12332296533327 5.45535129263156  C 7.9033580714667 5.63201867789472  7.67624811519988 5.82604382315783  7.43678817279999 6.02956857263159  C 7.02104990720005 6.3828959157895  6.48691635200004 6.85785384421057  5.96969545386673 7.34865434947369  Z " fill-rule="nonzero" fill="#53b467" stroke="none" transform="matrix(1 0 0 1 877 133 )" />
  </g>
</svg>