<?xml version="1.0" encoding="utf-8"?>
<svg version="1.1" xmlns:xlink="http://www.w3.org/1999/xlink" width="14px" height="14px" xmlns="http://www.w3.org/2000/svg">
  <g transform="matrix(1 0 0 1 -931 -433 )">
    <path d="M 13.3912405939276 9.69810250577063  C 13.0412392578125 10.5255937344638  12.5403152432528 11.2686490323154  11.9022683038885 11.9066641845703  C 11.2642372580788 12.5446952303799  10.5211819602273 13.0456351384943  9.69370662508879 13.3956523837003  C 8.83680351118608 13.7580702991832  7.92678413751776 13.9418388805042  6.98889503506746 13.9418388805042  C 6.0510218261719 13.9418388805042  5.14098655894884 13.7580702991832  4.28408344504612 13.3956523837003  C 3.45660810990762 13.0456192449396  2.7135369185014 12.5446952459162  2.07553765980117 11.9066641845703  C 1.43752250754619 11.2686490323154  0.936550796786264 10.5255937344638  0.586549460671108 9.69810250577063  C 0.224115651633497 8.84123119451351  0.0403470547762481 7.9311959272905  0.0403470547762481 6.9932909157493  C 0.0403470547762481 6.05543360040838  0.224115636097281 5.14539833318537  0.586549460671108 4.28847932572802  C 0.936550796786264 3.46101988414415  1.43752250754619 2.71793279918325  2.07553765980117 2.0799335404829  C 2.7135369185014 1.44190249467329  3.45660810990762 0.940946677468048  4.28408344504612 0.590961250443854  C 5.14098655894884 0.228495638760648  6.0510218261719 0.0447429509943049  6.98889503506746 0.0447429509943049  C 7.92678415305397 0.0447429509943049  8.83680351118608 0.228495638760648  9.69370662508879 0.590961250443854  C 10.5211819602273 0.940946693004264  11.2642372580788 1.44190249467329  11.9022683038885 2.0799335404829  C 12.5403152587891 2.71793279918325  13.0412551669034 3.46101988414415  13.3912405939276 4.28847932572802  C 13.7536744029652 5.14539833318537  13.9374429998225 6.05541770685369  13.9374429998225 6.9932909157493  C 13.9374429998225 7.93121182084519  13.7536585094106 8.84123119451351  13.3912405939276 9.69810250577063  Z M 0.840811161665442 6.99327502219461  C 0.840811161665442 10.3833515469638  3.59883440385295 13.1413747891513  6.98889503506746 13.1413747891513  C 10.378955666282 13.1413747891513  13.1369948020242 10.3833515469638  13.1369948020242 6.99327502219461  C 13.1369948020242 3.60319849742541  10.378955666282 0.845191148792594  6.98889503506746 0.845191148792594  C 3.59883440385295 0.845191148792594  0.840811161665442 3.60319849742541  0.840811161665442 6.99327502219461  Z M 10.1412100974264 6.49150366256157  C 10.3907306476715 6.49150366256157  10.5923784091606 6.7236341280788  10.5923641485907 7.00969735098522  C 10.5923641485907 7.2956950455665  10.3907164010417 7.52782551108373  10.1411958507966 7.52782551108373  L 7.4340433746936 7.52782551108373  L 6.53170676516538 7.52782551108373  L 3.82455428906246 7.52782551108373  C 3.57553299816175 7.52782551108373  3.37342877297795 7.29571143965518  3.37342877297795 7.00969735098522  C 3.37342877297795 6.7236341280788  3.57551873759189 6.49150366256157  3.82455428906246 6.49150366256157  L 6.53172102573535 6.49150366256157  L 7.43405763526346 6.49150366256157  L 10.1412100974264 6.49150366256157  Z " fill-rule="nonzero" fill="#cccccc" stroke="none" transform="matrix(1 0 0 1 931 433 )" />
  </g>
</svg>