<?xml version="1.0" encoding="utf-8"?>
<svg version="1.1" xmlns:xlink="http://www.w3.org/1999/xlink" width="14px" height="14px" xmlns="http://www.w3.org/2000/svg">
  <g transform="matrix(1 0 0 1 -757 -533 )">
    <path d="M 13.3912405939276 9.69810250577063  C 13.0412392578125 10.5255937344638  12.540315243253 11.2686490323153  11.9022683038885 11.9066641845703  C 11.2642372580788 12.54469523038  10.5211819602272 13.0456351384943  9.69370662508879 13.3956523837003  C 8.83680351118608 13.7580702991833  7.92678413751776 13.9418388805043  6.98889503506746 13.9418388805043  C 6.0510218261719 13.9418388805043  5.14098655894884 13.7580702991833  4.28408344504612 13.3956523837003  C 3.45660810990762 13.0456192449396  2.7135369185014 12.5446952459162  2.07553765980106 11.9066641845703  C 1.43752250754619 11.2686490323153  0.936550796786264 10.5255937344638  0.586549460671222 9.69810250577063  C 0.224115651633497 8.84123119451351  0.0403470547762481 7.93119592729045  0.0403470547762481 6.99329091574936  C 0.0403470547762481 6.05543360040832  0.224115636097281 5.14539833318537  0.586549460671222 4.28847932572796  C 0.936550796786264 3.46101988414415  1.43752250754619 2.71793279918325  2.07553765980106 2.0799335404829  C 2.7135369185014 1.44190249467334  3.45660810990762 0.940946677468048  4.28408344504612 0.590961250443854  C 5.14098655894884 0.228495638760648  6.0510218261719 0.0447429509943618  6.98889503506746 0.0447429509943618  C 7.92678415305397 0.0447429509943618  8.83680351118608 0.228495638760648  9.69370662508879 0.590961250443854  C 10.5211819602272 0.940946693004264  11.2642372580788 1.44190249467334  11.9022683038885 2.0799335404829  C 12.540315258789 2.71793279918325  13.0412551669035 3.46101988414415  13.3912405939276 4.28847932572796  C 13.7536744029651 5.14539833318537  13.9374429998225 6.05541770685363  13.9374429998225 6.99329091574936  C 13.9374429998225 7.93121182084514  13.7536585094105 8.84123119451351  13.3912405939276 9.69810250577063  Z M 0.840811161665442 6.99327502219461  C 0.840811161665442 10.3833515469638  3.59883440385306 13.1413747891513  6.98889503506746 13.1413747891513  C 10.378955666282 13.1413747891513  13.1369948020242 10.3833515469638  13.1369948020242 6.99327502219461  C 13.1369948020242 3.60319849742547  10.378955666282 0.845191148792594  6.98889503506746 0.845191148792594  C 3.59883440385306 0.845191148792594  0.840811161665442 3.60319849742547  0.840811161665442 6.99327502219461  Z M 3.96502685546875 7.42000000000002  C 3.6692322583151 7.45496395703719  3.429443359375 7.22494021687737  3.429443359375 6.94119155354446  C 3.429443359375 6.6574428902116  3.6692322583151 6.42741915005183  3.96502685546875 6.44000000000005  L 6.57999999999993 6.44000000000005  L 6.57999999999993 3.83666198730475  C 6.50690180759796 3.53508130511636  6.73278745509128 3.29077880859376  7.01098039215685 3.29077880859376  C 7.28917332922242 3.29077880859376  7.51505897671575 3.53508130511636  7.42000000000007 3.83666198730475  L 7.42000000000007 6.44000000000005  L 10.0352836295366 6.44000000000005  C 10.3308636251688 6.42741915005183  10.570556640625 6.65764875230462  10.570556640625 6.94119155354446  C 10.570556640625 7.2247343547844  10.3308636251688 7.45496395703719  10.0349731445313 7.42000000000002  L 7.42000000000007 7.42000000000002  L 7.42000000000007 10.0236544685662  C 7.51505897671575 10.3251374233574  7.28937530712494 10.5695376472772  7.01098039215685 10.5695376472772  C 6.73258547718876 10.5695376472772  6.50690180759796 10.3251374233574  6.57999999999993 10.0236544685662  L 6.57999999999993 7.42000000000002  L 3.96502685546875 7.42000000000002  Z " fill-rule="nonzero" fill="#cccccc" stroke="none" transform="matrix(1 0 0 1 757 533 )" />
  </g>
</svg>