<?xml version="1.0" encoding="utf-8"?>
<svg version="1.1" xmlns:xlink="http://www.w3.org/1999/xlink" width="8px" height="6px" xmlns="http://www.w3.org/2000/svg">
  <g transform="matrix(1 0 0 1 -1199 -502 )">
    <path d="M 3.02558385937505 5.6711070312499  C 2.96213431899423 5.73466357497591  2.8760060002262 5.77036590696093  2.78619910937505 5.77033796875003  C 2.69636298987234 5.7703461646629  2.61020683473419 5.73464912688701  2.54670147656248 5.6711070312499  L 0.129654976562506 3.25406053906249  C 0.0661499254298406 3.19055747609286  0.030472992056275 3.10442764641471  0.030472992056275 3.01461934765621  C 0.030472992056275 2.92481104889771  0.0661499254298406 2.83868121921955  0.129654976562506 2.77517815624992  C 0.193145631381981 2.71162815083653  0.279293068484776 2.67592113607725  0.369124390624961 2.67592113607725  C 0.458955712765146 2.67592113607725  0.545103149867941 2.71162815083653  0.60859380468753 2.77517815624992  L 2.78614266406248 4.95272701562499  L 7.40167925000003 0.337133984374987  C 7.46518231296955 0.273628933242321  7.55131214264782 0.237951999868869  7.6411204414062 0.237951999868869  C 7.7309287401647 0.237951999868869  7.81705856984297 0.273628933242321  7.88056163281249 0.337133984374987  C 7.94409779108094 0.400631992520061  7.97979524192112 0.486776673873464  7.97979524192112 0.576603398437555  C 7.97979524192112 0.666430123001533  7.94409779108094 0.752574804354936  7.88056163281249 0.816072812500011  L 3.02558385937505 5.6711070312499  Z " fill-rule="nonzero" fill="#ffffff" stroke="none" transform="matrix(1 0 0 1 1199 502 )" />
  </g>
</svg>