<?xml version="1.0" encoding="utf-8"?>
<svg version="1.1" xmlns:xlink="http://www.w3.org/1999/xlink" width="14px" height="8px" xmlns="http://www.w3.org/2000/svg">
  <g transform="matrix(1 0 0 1 -332 -498 )">
    <path d="M 13.5783700942199 0.232032576649999  C 13.8109194212016 0.232032576649999  13.9995608853914 0.423306833845629  13.9999999986588 0.659546999999975  C 14.0000089294089 0.773107934559278  13.9554148131826 0.881978773194476  13.8761085305251 0.962012194444469  L 7.29787110035375 7.64466612499996  C 7.21867360352178 7.72599103806357  7.11074326405344 7.7717527746729  6.99813367215711 7.7717527746729  C 6.88552408026072 7.7717527746729  6.77759374079238 7.72599103806357  6.69839624396047 7.64466612499996  L 0.124155307909916 0.962012194444412  C 0.0446599993300651 0.881255055168026  0 0.771724869400941  0 0.657517027777772  C 0 0.419691509169411  0.189783242390831 0.226895833400704  0.423892736106495 0.226895833400704  C 0.536316079645189 0.226895833400704  0.644134855723337 0.272264721834688  0.723630164303188 0.353021861111074  L 7.00612666039859 6.72712069444447  L 13.2806301682525 0.357081791666644  C 13.3596686739678 0.27700263688763  13.4667415764575 0.232032576649999  13.5783700942199 0.232032576649999  Z " fill-rule="nonzero" fill="#999999" stroke="none" transform="matrix(1 0 0 1 332 498 )" />
  </g>
</svg>