<?xml version="1.0" encoding="utf-8"?>
<svg version="1.1" xmlns:xlink="http://www.w3.org/1999/xlink" width="8px" height="15px" xmlns="http://www.w3.org/2000/svg">
  <g transform="matrix(1 0 0 1 -335 -354 )">
    <path d="M 0.232032576649999 0.451746327621493  C 0.232032576649999 0.20258633442694  0.423306833845629 0.000470479937860091  0.659546999999975 0  C 0.773107934559278 0  0.881978773194476 0.0477698430186706  0.962012194444469 0.132740860151671  L 7.64466612499996 7.18085239247813  C 7.72599103806357 7.26570685336952  7.7717527746729 7.38134650279989  7.7717527746729 7.50199963697452  C 7.7717527746729 7.62265277114921  7.72599103806357 7.73829242057957  7.64466612499996 7.82314688147096  L 0.962012194444469 14.8669764558108  C 0.881255055168026 14.9521500007178  0.771724869400941 15  0.657517027777772 15  C 0.419691509169411 15  0.226895833400704 14.7966608117241  0.226895833400704 14.5458292113145  C 0.226895833400704 14.4253756289516  0.272264721834688 14.309855511725  0.353021861111074 14.224681966818  L 6.72712069444447 7.4934357210015  L 0.357081791666644 0.770753391157996  C 0.27700263688763 0.686069277891647  0.232032576649999 0.57134831093839  0.232032576649999 0.451746327621493  Z " fill-rule="nonzero" fill="#999999" stroke="none" transform="matrix(1 0 0 1 335 354 )" />
  </g>
</svg>